# xmcd
#
# Track frame offsets: 
#        150
#        13649
#        26083
#        38120
#        49360
#        69091
#        83734
#        95600
#        119257
#        131327
#        145711
#        167612
#
# Disc length: 2401 seconds
#
# Revision: 0
# Processed by: cddbd v1.5.2PL0 Copyright (c) Steve Scherf et al.
# Submitted via: ExactAudioCopy v0.99pb4
#
DISCID=95095f0c
DTITLE=Trio Valore - Return of the Iron Monkey
DYEAR=2008
DGENRE=Soul
TTITLE0=Dam Square
TTITLE1=Miracolo
TTITLE2=Pinturas Negras
TTITLE3=Return of the Iron Monkey
TTITLE4=Soul Power '08
TTITLE5=El Compadre
TTITLE6=Hip Hug-Her
TTITLE7=Anxious Mo-Fo
TTITLE8=All Abuot My Girl
TTITLE9=Rehab
TTITLE10=Hola Muneca
TTITLE11=Fuoco
EXTD=
EXTT0=
EXTT1=
EXTT2=
EXTT3=
EXTT4=
EXTT5=
EXTT6=
EXTT7=
EXTT8=
EXTT9=
EXTT10=
EXTT11=
PLAYORDER=
